<svg width="113" height="24" xmlns="http://www.w3.org/2000/svg" xmlns:xlink="http://www.w3.org/1999/xlink" xml:space="preserve" overflow="hidden"><defs><clipPath id="clip0"><rect x="512" y="328" width="113" height="24"/></clipPath><clipPath id="clip1"><rect x="512" y="329" width="113" height="23"/></clipPath><clipPath id="clip2"><rect x="512" y="329" width="113" height="23"/></clipPath><clipPath id="clip3"><rect x="512" y="327" width="23" height="23"/></clipPath><clipPath id="clip4"><rect x="512" y="327" width="23" height="23"/></clipPath><clipPath id="clip5"><rect x="512" y="327" width="23" height="23"/></clipPath></defs><g clip-path="url(#clip0)" transform="translate(-512 -328)"><g clip-path="url(#clip1)"><g clip-path="url(#clip2)"><text fill="#ED7D31" fill-opacity="1" font-family="Calibri,Calibri_MSFontService,sans-serif" font-style="normal" font-variant="normal" font-weight="400" font-stretch="normal" font-size="88" text-anchor="start" direction="ltr" writing-mode="lr-tb" unicode-bidi="normal" text-decoration="none" transform="matrix(0.241058 0 0 0.231935 539.962 345)">Warning</text><g clip-path="url(#clip3)"><g clip-path="url(#clip4)"><g clip-path="url(#clip5)"><path d="M20.3567 17.975 11.5714 2.69625C11.2344 2.08959 10.3581 2.08959 10.021 2.69625L1.21331 17.975C0.876282 18.5816 1.30319 19.3231 1.99972 19.3231L10.785 19.3231 19.5703 19.3231C20.2668 19.3231 20.6937 18.5816 20.3567 17.975ZM10.1109 6.29125 11.459 6.29125 11.459 14.1553 10.1109 14.1553 10.1109 6.29125ZM10.785 17.3009C10.1559 17.3009 9.66155 16.8066 9.66155 16.1775 9.66155 15.5484 10.1559 15.054 10.785 15.054 11.4141 15.054 11.9084 15.5484 11.9084 16.1775 11.9084 16.8066 11.4141 17.3009 10.785 17.3009Z" fill="#ED7D31" fill-rule="nonzero" fill-opacity="1" transform="matrix(1.05051 0 0 1 512 327.676)"/></g></g></g></g></g></g></svg>